<?xml version="1.0" encoding="UTF-8" standalone="no"?>
<!-- Created with Inkscape (http://www.inkscape.org/) -->

<svg
   xmlns:dc="http://purl.org/dc/elements/1.1/"
   xmlns:cc="http://creativecommons.org/ns#"
   xmlns:rdf="http://www.w3.org/1999/02/22-rdf-syntax-ns#"
   xmlns:svg="http://www.w3.org/2000/svg"
   xmlns="http://www.w3.org/2000/svg"
   xmlns:xlink="http://www.w3.org/1999/xlink"
   xmlns:sodipodi="http://sodipodi.sourceforge.net/DTD/sodipodi-0.dtd"
   xmlns:inkscape="http://www.inkscape.org/namespaces/inkscape"
   width="450"
   height="418"
   id="svg1901"
   sodipodi:version="0.32"
   inkscape:version="0.48.3.1 r9886"
   sodipodi:docname="Flat_monitor1.svg"
   version="1.0"
   inkscape:output_extension="org.inkscape.output.svg.inkscape">
  <defs
     id="defs1903">
    <linearGradient
       id="linearGradient3736">
      <stop
         style="stop-color:#d3d2d3;stop-opacity:1;"
         offset="0"
         id="stop3738" />
      <stop
         style="stop-color:#a4a3a7;stop-opacity:1;"
         offset="1"
         id="stop3740" />
    </linearGradient>
    <linearGradient
       id="linearGradient3716">
      <stop
         style="stop-color:#959595;stop-opacity:1;"
         offset="0"
         id="stop3718" />
      <stop
         style="stop-color:#969696;stop-opacity:0;"
         offset="1"
         id="stop3720" />
    </linearGradient>
    <linearGradient
       id="linearGradient3702">
      <stop
         style="stop-color:#dadada;stop-opacity:1;"
         offset="0"
         id="stop3704" />
      <stop
         style="stop-color:#ceced0;stop-opacity:1;"
         offset="1"
         id="stop3706" />
    </linearGradient>
    <linearGradient
       id="linearGradient3694">
      <stop
         style="stop-color:#000000;stop-opacity:0"
         offset="0"
         id="stop3696" />
      <stop
         style="stop-color:#000000;stop-opacity:0;"
         offset="1"
         id="stop3698" />
    </linearGradient>
    <linearGradient
       id="linearGradient3668">
      <stop
         style="stop-color:#dcdcdc;stop-opacity:1;"
         offset="0"
         id="stop3670" />
      <stop
         id="stop3682"
         offset="0.5"
         style="stop-color:#e2e2e2;stop-opacity:1;" />
      <stop
         style="stop-color:#e0e0e0;stop-opacity:1;"
         offset="1"
         id="stop3672" />
    </linearGradient>
    <linearGradient
       id="linearGradient3658">
      <stop
         style="stop-color:#dcdcdc;stop-opacity:1;"
         offset="0"
         id="stop3660" />
      <stop
         style="stop-color:#efefef;stop-opacity:1;"
         offset="1"
         id="stop3662" />
    </linearGradient>
    <linearGradient
       id="linearGradient3608">
      <stop
         style="stop-color:#787878;stop-opacity:1;"
         offset="0"
         id="stop3610" />
      <stop
         id="stop3616"
         offset="0.05886631"
         style="stop-color:#262626;stop-opacity:1;" />
      <stop
         style="stop-color:#262626;stop-opacity:1;"
         offset="0.92191237"
         id="stop3618" />
      <stop
         style="stop-color:#787878;stop-opacity:1;"
         offset="1"
         id="stop3612" />
    </linearGradient>
    <linearGradient
       id="linearGradient3600">
      <stop
         style="stop-color:#343434;stop-opacity:1;"
         offset="0"
         id="stop3602" />
      <stop
         style="stop-color:#343434;stop-opacity:0.42608696;"
         offset="1"
         id="stop3604" />
    </linearGradient>
    <linearGradient
       id="linearGradient3586">
      <stop
         style="stop-color:#5c5b60;stop-opacity:1;"
         offset="0"
         id="stop3588" />
      <stop
         id="stop3594"
         offset="0.23475531"
         style="stop-color:#b3b2b6;stop-opacity:1;" />
      <stop
         style="stop-color:#5c5b60;stop-opacity:1;"
         offset="0.4925566"
         id="stop3596" />
      <stop
         id="stop3598"
         offset="0.77982396"
         style="stop-color:#aeadb2;stop-opacity:1;" />
      <stop
         style="stop-color:#5c5b60;stop-opacity:1;"
         offset="1"
         id="stop3590" />
    </linearGradient>
    <linearGradient
       id="linearGradient3574">
      <stop
         style="stop-color:#f8f8f6;stop-opacity:1;"
         offset="0"
         id="stop3576" />
      <stop
         id="stop3582"
         offset="0.5"
         style="stop-color:#f8f8f6;stop-opacity:0.49803922;" />
      <stop
         style="stop-color:#f8f8f6;stop-opacity:0;"
         offset="1"
         id="stop3578" />
    </linearGradient>
    <linearGradient
       id="linearGradient3564">
      <stop
         style="stop-color:#818183;stop-opacity:1;"
         offset="0"
         id="stop3566" />
      <stop
         id="stop3572"
         offset="0.5"
         style="stop-color:#ffffff;stop-opacity:1;" />
      <stop
         style="stop-color:#81818f;stop-opacity:0.94117647;"
         offset="1"
         id="stop3568" />
    </linearGradient>
    <linearGradient
       id="linearGradient3554">
      <stop
         style="stop-color:#7b7b7d;stop-opacity:1;"
         offset="0"
         id="stop3556" />
      <stop
         id="stop3562"
         offset="0.5"
         style="stop-color:#f8f8f6;stop-opacity:1;" />
      <stop
         style="stop-color:#7b7b7d;stop-opacity:1;"
         offset="1"
         id="stop3558" />
    </linearGradient>
    <linearGradient
       id="linearGradient3544">
      <stop
         style="stop-color:#8b8b8d;stop-opacity:1;"
         offset="0"
         id="stop3546" />
      <stop
         id="stop3552"
         offset="0.5"
         style="stop-color:#7f7f81;stop-opacity:1;" />
      <stop
         style="stop-color:#8b8b8d;stop-opacity:1;"
         offset="1"
         id="stop3548" />
    </linearGradient>
    <linearGradient
       id="linearGradient3518">
      <stop
         style="stop-color:#767175;stop-opacity:1;"
         offset="0"
         id="stop3520" />
      <stop
         style="stop-color:#525053;stop-opacity:1;"
         offset="1"
         id="stop3522" />
    </linearGradient>
    <linearGradient
       id="linearGradient3502">
      <stop
         style="stop-color:#000000;stop-opacity:1;"
         offset="0"
         id="stop3504" />
      <stop
         style="stop-color:#000000;stop-opacity:0;"
         offset="1"
         id="stop3506" />
    </linearGradient>
    <linearGradient
       id="linearGradient3344">
      <stop
         style="stop-color:#3e3f42;stop-opacity:1;"
         offset="0"
         id="stop3346" />
      <stop
         style="stop-color:#141414;stop-opacity:1;"
         offset="1"
         id="stop3348" />
    </linearGradient>
    <linearGradient
       id="linearGradient3334">
      <stop
         style="stop-color:#000000;stop-opacity:1;"
         offset="0"
         id="stop3336" />
      <stop
         id="stop3342"
         offset="0.5"
         style="stop-color:#1e1e1e;stop-opacity:1;" />
      <stop
         style="stop-color:#1e1e1e;stop-opacity:1;"
         offset="1"
         id="stop3338" />
    </linearGradient>
    <inkscape:perspective
       sodipodi:type="inkscape:persp3d"
       inkscape:vp_x="0 : 526.18109 : 1"
       inkscape:vp_y="0 : 1000 : 0"
       inkscape:vp_z="744.09448 : 526.18109 : 1"
       inkscape:persp3d-origin="372.04724 : 350.78739 : 1"
       id="perspective7" />
    <inkscape:perspective
       id="perspective2444"
       inkscape:persp3d-origin="372.04724 : 350.78739 : 1"
       inkscape:vp_z="744.09448 : 526.18109 : 1"
       inkscape:vp_y="0 : 1000 : 0"
       inkscape:vp_x="0 : 526.18109 : 1"
       sodipodi:type="inkscape:persp3d" />
    <filter
       inkscape:collect="always"
       id="filter3474"
       x="-0.03472919"
       width="1.0694584"
       y="-0.56101"
       height="2.12202"
       color-interpolation-filters="sRGB">
      <feGaussianBlur
         inkscape:collect="always"
         stdDeviation="1.5348278"
         id="feGaussianBlur3476" />
    </filter>
    <filter
       inkscape:collect="always"
       id="filter3498"
       color-interpolation-filters="sRGB">
      <feGaussianBlur
         inkscape:collect="always"
         stdDeviation="2.6826708"
         id="feGaussianBlur3500" />
    </filter>
    <filter
       inkscape:collect="always"
       id="filter3538"
       x="-0.0055243215"
       width="1.0110486"
       y="-0.1770238"
       height="1.3540477"
       color-interpolation-filters="sRGB">
      <feGaussianBlur
         inkscape:collect="always"
         stdDeviation="0.41911182"
         id="feGaussianBlur3540" />
    </filter>
    <linearGradient
       id="linearGradient2708">
      <stop
         style="stop-color:#556b2f;stop-opacity:1;"
         offset="0"
         id="stop2710" />
      <stop
         id="stop2732"
         offset="0.89434826"
         style="stop-color:#556b2f;stop-opacity:0.9856115;" />
      <stop
         style="stop-color:#556b2f;stop-opacity:0;"
         offset="1"
         id="stop2712" />
    </linearGradient>
    <radialGradient
       id="radialGradient2688"
       cx="-82.870102"
       cy="59.223598"
       r="136.964"
       fx="-82.870102"
       fy="59.223598"
       gradientTransform="matrix(0.2932,0,0,0.2932,48.2956,21.9904)"
       gradientUnits="userSpaceOnUse">
      <stop
         offset="0"
         style="stop-color:#adff2f;stop-opacity:1"
         id="stop2690" />
      <stop
         offset="0.4944"
         style="stop-color:#9acd32;stop-opacity:1"
         id="stop2692" />
      <stop
         offset="0.618"
         style="stop-color:#9acd32;stop-opacity:1"
         id="stop2694" />
      <stop
         offset="0.764"
         style="stop-color:#6b8e23;stop-opacity:1"
         id="stop2696" />
    </radialGradient>
    <linearGradient
       inkscape:collect="always"
       id="linearGradient2698">
      <stop
         style="stop-color:#ffffff;stop-opacity:1;"
         offset="0"
         id="stop2700" />
      <stop
         style="stop-color:#ffffff;stop-opacity:0;"
         offset="1"
         id="stop2702" />
    </linearGradient>
    <linearGradient
       inkscape:collect="always"
       xlink:href="#linearGradient3608"
       id="linearGradient3241"
       gradientUnits="userSpaceOnUse"
       x1="373.36325"
       y1="1112.9591"
       x2="996.21637"
       y2="1112.9591" />
    <linearGradient
       inkscape:collect="always"
       xlink:href="#linearGradient3586"
       id="linearGradient3243"
       gradientUnits="userSpaceOnUse"
       x1="361.07751"
       y1="1077.7009"
       x2="1008.5021"
       y2="1077.7009" />
    <linearGradient
       inkscape:collect="always"
       xlink:href="#linearGradient3554"
       id="linearGradient3245"
       gradientUnits="userSpaceOnUse"
       gradientTransform="matrix(1,0,0,0.9800072,0,22.875867)"
       x1="361.07751"
       y1="1068.415"
       x2="1008.5021"
       y2="1068.415" />
    <radialGradient
       inkscape:collect="always"
       xlink:href="#linearGradient3564"
       id="radialGradient3247"
       gradientUnits="userSpaceOnUse"
       gradientTransform="matrix(1.5480611,-0.1834317,0.03729728,0.3235084,-356.92686,814.42575)"
       cx="527.65417"
       cy="1272.5239"
       fx="527.65417"
       fy="1272.5239"
       r="323.71228" />
    <linearGradient
       inkscape:collect="always"
       xlink:href="#linearGradient3544"
       id="linearGradient3249"
       gradientUnits="userSpaceOnUse"
       x1="388.93469"
       y1="1061.2722"
       x2="980.64502"
       y2="1061.2722" />
    <linearGradient
       inkscape:collect="always"
       xlink:href="#linearGradient3518"
       id="linearGradient3251"
       gradientUnits="userSpaceOnUse"
       x1="665.68005"
       y1="1066.8822"
       x2="666.97235"
       y2="1103.9773" />
    <linearGradient
       inkscape:collect="always"
       xlink:href="#linearGradient3600"
       id="linearGradient3253"
       gradientUnits="userSpaceOnUse"
       x1="636.93561"
       y1="1106.5503"
       x2="636.01678"
       y2="1055.37" />
    <linearGradient
       inkscape:collect="always"
       xlink:href="#linearGradient3334"
       id="linearGradient3255"
       gradientUnits="userSpaceOnUse"
       x1="677.30988"
       y1="868.61285"
       x2="677.30988"
       y2="1029.2238" />
    <linearGradient
       inkscape:collect="always"
       xlink:href="#linearGradient3502"
       id="linearGradient3257"
       gradientUnits="userSpaceOnUse"
       x1="674.30023"
       y1="1034.6683"
       x2="674.25336"
       y2="1104.9625" />
    <linearGradient
       inkscape:collect="always"
       xlink:href="#linearGradient3736"
       id="linearGradient3259"
       gradientUnits="userSpaceOnUse"
       gradientTransform="matrix(0.22213691,0,0,0.28745519,47.826073,824.3009)"
       x1="65.642845"
       y1="462.01175"
       x2="1299.1785"
       y2="462.01175" />
    <linearGradient
       inkscape:collect="always"
       xlink:href="#linearGradient3702"
       id="linearGradient3261"
       gradientUnits="userSpaceOnUse"
       gradientTransform="matrix(0.22213691,0,0,0.28745519,47.826073,824.3009)"
       x1="1270.0774"
       y1="87.60714"
       x2="1270.0774"
       y2="826.46106" />
    <linearGradient
       inkscape:collect="always"
       xlink:href="#linearGradient3668"
       id="linearGradient3263"
       gradientUnits="userSpaceOnUse"
       gradientTransform="matrix(0.22213691,0,0,0.28745519,47.826073,830.05)"
       x1="91.339287"
       y1="809.39288"
       x2="1273.9286"
       y2="809.39288" />
    <linearGradient
       inkscape:collect="always"
       xlink:href="#linearGradient3658"
       id="linearGradient3265"
       gradientUnits="userSpaceOnUse"
       gradientTransform="matrix(0.22213691,0,0,0.28745519,47.826073,824.3009)"
       x1="94.828072"
       y1="834.01007"
       x2="94.828072"
       y2="87.007332" />
    <radialGradient
       inkscape:collect="always"
       xlink:href="#linearGradient3344"
       id="radialGradient3267"
       gradientUnits="userSpaceOnUse"
       gradientTransform="matrix(0.03580774,0.27117654,-0.14258093,0.03152716,80.899087,1049.565)"
       cx="-719.95428"
       cy="-100.64034"
       fx="-719.95428"
       fy="-100.64034"
       r="585.16064" />
    <radialGradient
       inkscape:collect="always"
       xlink:href="#linearGradient2708"
       id="radialGradient3269"
       gradientUnits="userSpaceOnUse"
       gradientTransform="matrix(1.7441638,0,0,1.744244,-3.4599333,-3.461856)"
       cx="24"
       cy="24"
       fx="24"
       fy="24"
       r="21.778999" />
    <radialGradient
       inkscape:collect="always"
       xlink:href="#radialGradient2688"
       id="radialGradient3271"
       gradientUnits="userSpaceOnUse"
       gradientTransform="matrix(0.4842776,0,0,0.4842776,78.477242,35.080723)"
       cx="-82.870102"
       cy="59.223598"
       fx="-82.870102"
       fy="59.223598"
       r="136.964" />
    <linearGradient
       inkscape:collect="always"
       xlink:href="#linearGradient2698"
       id="linearGradient3273"
       gradientUnits="userSpaceOnUse"
       gradientTransform="matrix(1.6516973,0,0,1.6516973,-1.2924651,-1.2407584)"
       x1="24.86747"
       y1="-0.22429028"
       x2="24.86747"
       y2="24.305754" />
  </defs>
  <sodipodi:namedview
     id="base"
     pagecolor="#ffffff"
     bordercolor="#666666"
     borderopacity="1.0"
     inkscape:pageopacity="0.0"
     inkscape:pageshadow="2"
     inkscape:zoom="0.7"
     inkscape:cx="447.25521"
     inkscape:cy="91.399427"
     inkscape:document-units="px"
     inkscape:current-layer="layer2"
     gridtolerance="10000"
     inkscape:window-width="1366"
     inkscape:window-height="705"
     inkscape:window-x="0"
     inkscape:window-y="28"
     showgrid="false"
     inkscape:window-maximized="1" />
  <metadata
     id="metadata1906">
    <rdf:RDF>
      <cc:Work
         rdf:about="">
        <dc:format>image/svg+xml</dc:format>
        <dc:type
           rdf:resource="http://purl.org/dc/dcmitype/StillImage" />
        <dc:title />
      </cc:Work>
    </rdf:RDF>
  </metadata>
  <g
     inkscape:groupmode="layer"
     id="layer2"
     inkscape:label="vektori"
     style="display:inline"
     transform="translate(0,-763)">
    <text
       xml:space="preserve"
       style="font-size:12px;font-style:normal;font-variant:normal;font-weight:normal;font-stretch:normal;text-align:start;line-height:100%;writing-mode:lr-tb;text-anchor:start;fill:#000000;fill-opacity:1;stroke:none;font-family:Webdings;-inkscape-font-specification:Webdings"
       x="1275"
       y="640.10712"
       id="text3258"
       sodipodi:linespacing="100%"><tspan
         sodipodi:role="line"
         id="tspan3260"
         x="1275"
         y="640.10712" /></text>
    <rect
       ry="4.2857146"
       rx="4.2857146"
       y="48.066715"
       x="1509.1724"
       height="25"
       width="33.92857"
       id="rect3815"
       style="fill:#1b1b1b;fill-opacity:1;fill-rule:evenodd;stroke:none;display:inline" />
    <path
       style="font-size:22.65601158px;font-style:normal;font-variant:normal;font-weight:normal;font-stretch:normal;text-align:start;line-height:100%;writing-mode:lr-tb;text-anchor:start;fill:#e4e4e4;fill-opacity:1;stroke:none;display:inline;font-family:Webdings;-inkscape-font-specification:Webdings"
       d="m 1556.7643,60.235924 c -0.5679,1.025132 -1.2649,1.899069 -2.0909,2.621814 -1.9838,1.755254 -4.4471,2.632878 -7.3897,2.632876 -2.9426,2e-6 -5.4096,-0.877622 -7.4008,-2.632876 -0.826,-0.722745 -1.5267,-1.596682 -2.1019,-2.621814 0.5752,-1.025117 1.2759,-1.902742 2.1019,-2.632876 1.9912,-1.75524 4.4582,-2.632864 7.4008,-2.632877 2.9426,1.3e-5 5.4059,0.877637 7.3897,2.632877 0.826,0.730134 1.523,1.607759 2.0909,2.632876 m -1.8032,0 c -0.3614,-0.634242 -0.8002,-1.202117 -1.3165,-1.703626 -1.239,-1.19474 -2.7656,-1.943303 -4.5798,-2.245689 0.7891,0.339261 1.4233,0.859199 1.9027,1.559814 0.4867,0.722759 0.7301,1.519259 0.7301,2.389501 0,0.862882 -0.2397,1.648319 -0.719,2.356314 -0.472,0.708004 -1.0952,1.235316 -1.8696,1.581938 2.6697,-0.457246 4.6204,-1.769996 5.8521,-3.938252 m -4.1817,0 c 0,-0.943992 -0.3429,-1.751554 -1.0288,-2.422689 -0.6859,-0.671115 -1.5119,-1.006677 -2.478,-1.006688 -0.5089,1.1e-5 -0.9919,0.103261 -1.4492,0.30975 l -0.365,-0.829688 c -2.6772,0.457261 -4.6352,1.773698 -5.8742,3.949315 0.3614,0.634257 0.7965,1.198444 1.3054,1.692563 1.2316,1.18738 2.7435,1.935942 4.5356,2.245689 -0.7744,-0.346622 -1.3976,-0.873934 -1.8696,-1.581938 -0.472,-0.707995 -0.708,-1.493432 -0.708,-2.356314 0,-0.523618 0.092,-1.032492 0.2766,-1.526626 l 0.885,0.276563 c -0.1623,0.405633 -0.2434,0.82232 -0.2434,1.250063 0,0.951382 0.3429,1.762631 1.0288,2.433751 0.6859,0.663755 1.5119,0.99563 2.478,0.995626 0.9661,4e-6 1.7921,-0.331871 2.478,-0.995626 0.6859,-0.67112 1.0288,-1.482369 1.0288,-2.433751 m -0.8518,0 c 0,0.715382 -0.2618,1.327507 -0.7854,1.836376 -0.5163,0.50888 -1.1395,0.763317 -1.8696,0.763313 -0.7375,4e-6 -1.3644,-0.254433 -1.8806,-0.763313 -0.5163,-0.508869 -0.7744,-1.120994 -0.7744,-1.836376 0,-0.317118 0.055,-0.62318 0.166,-0.918188 l 2.7103,1.227938 -1.2722,-2.688189 c 0.3319,-0.14749 0.6822,-0.22124 1.0509,-0.22125 0.7301,1e-5 1.3533,0.254447 1.8696,0.763313 0.5236,0.508884 0.7854,1.121009 0.7854,1.836376"
       id="text3817"
       inkscape:connector-curvature="0" />
    <path
       style="font-size:19.82842827px;font-style:normal;font-variant:normal;font-weight:normal;font-stretch:normal;text-align:start;line-height:100%;writing-mode:lr-tb;text-anchor:start;fill:#e4e4e4;fill-opacity:1;stroke:none;font-family:Webdings;-inkscape-font-specification:Webdings"
       d="m 1513.1763,60.212372 c 0,1.917011 -0.5809,3.688788 -1.7428,5.315336 0.568,-1.213456 0.852,-2.578596 0.8521,-4.095423 -10e-5,-1.413543 -0.2292,-2.727046 -0.6875,-3.940512 -0.5615,-1.471631 -1.3716,-2.48177 -2.4301,-3.030419 1.2909,0.413104 2.2881,1.136014 2.9917,2.168734 0.6777,1.006921 1.0166,2.201015 1.0166,3.582284 m -1.7718,0.319501 c 0,1.536192 -0.4647,2.952968 -1.3942,4.250332 0.4518,-0.968182 0.6777,-2.059002 0.6777,-3.272465 0,-1.129543 -0.1839,-2.178409 -0.5518,-3.146601 -0.4454,-1.181176 -1.0941,-1.991223 -1.9461,-2.430144 1.0327,0.329193 1.8299,0.910104 2.3914,1.742733 0.5487,0.800374 0.823,1.752422 0.823,2.856145 m -1.5975,0.329183 c 0,1.232827 -0.3744,2.36883 -1.1231,3.408011 0.3679,-0.780999 0.5519,-1.655592 0.5519,-2.623781 0,-0.903633 -0.1485,-1.742726 -0.4454,-2.517281 -0.355,-0.942358 -0.8714,-1.591041 -1.5491,-1.946052 0.8197,0.264647 1.4523,0.726148 1.8976,1.384505 0.4454,0.651919 0.6681,1.416784 0.6681,2.294598 m -1.7427,1.868597 c -10e-5,0.71646 -0.068,1.34578 -0.2034,1.887961 -0.2065,0.852004 -0.5454,1.278005 -1.0165,1.278004 -0.1227,10e-7 -0.3906,-0.138772 -0.8036,-0.416319 -0.5035,-0.342091 -1.4652,-0.626091 -2.8852,-0.852003 -1.1748,-0.193635 -2.2043,-0.290453 -3.0885,-0.290456 -0.2453,3e-6 -0.368,0.196867 -0.368,0.590593 0,0.135548 0.052,0.329185 0.155,0.580911 0.1032,0.245275 0.1549,0.438911 0.1549,0.580911 0,0.142001 0.084,0.300138 0.2517,0.474411 0.1678,0.174273 0.2517,0.313046 0.2517,0.416319 0,0.02582 -0.01,0.06455 -0.029,0.116182 -0.013,0.05164 -0.019,0.09036 -0.019,0.116183 0,0.09036 0.074,0.219454 0.2227,0.387274 0.1549,0.167817 0.2324,0.313045 0.2324,0.435683 0,0.05809 -0.026,0.132317 -0.078,0.222682 -0.045,0.09036 -0.068,0.161363 -0.068,0.213001 0,0.07745 0.039,0.16459 0.1162,0.26141 0.078,0.103271 0.1162,0.174271 0.1162,0.213001 0,0.11618 -0.1549,0.174271 -0.4647,0.174273 -0.6778,-2e-6 -1.1554,-0.200094 -1.4329,-0.600275 -0.1743,-0.245275 -0.3389,-0.758412 -0.4938,-1.539414 -0.3034,-1.458731 -0.8198,-2.188096 -1.5491,-2.188098 -0.026,2e-6 -0.065,0.0065 -0.1162,0.01936 -0.052,0.0065 -0.09,0.0097 -0.1162,0.0097 -0.8262,2e-6 -1.2393,-0.755182 -1.2393,-2.265553 0,-0.864907 0.4228,-1.487772 1.2684,-1.868597 0.4389,-0.161358 1.094,-0.416313 1.9654,-0.764866 0.9165,-0.387267 1.9202,-0.981086 3.011,-1.781461 1.0198,-0.742265 1.7395,-1.378039 2.1591,-1.907324 0.1678,-0.890719 0.5196,-1.336083 1.0553,-1.336095 0.6325,1.2e-5 1.2425,0.697104 1.8299,2.091279 0.3937,0.942376 0.6938,1.933151 0.9004,2.972328 0.1872,0.935918 0.2807,1.85892 0.2808,2.769009 m -11.9087,1.984779 c -0.6971,-0.04518 -1.1909,-0.135543 -1.4813,-0.271091 -0.4583,-0.225908 -0.6874,-0.635772 -0.6874,-1.229595 0,-0.587362 0.1839,-1.023045 0.5518,-1.30705 0.013,-0.0129 0.4454,-0.242041 1.2974,-0.687411 -0.3034,0.342097 -0.4551,0.864916 -0.4551,1.568459 0,0.852006 0.2582,1.494235 0.7746,1.926688 m 9.4301,-2.633463 c 0,-0.684178 -0.1162,-1.326407 -0.3485,-1.926688 -0.2582,-0.671267 -0.6132,-1.14245 -1.065,-1.41355 0.2452,2.297832 0.6228,4.021199 1.1327,5.170108 0.1872,-0.567999 0.2808,-1.177954 0.2808,-1.82987 m -0.01,2.817419 c -0.568,-0.86491 -1.0198,-1.958958 -1.3554,-3.282147 -0.3099,-1.219907 -0.4648,-2.397864 -0.4648,-3.533876 l 0.1259,-1.103731 c -0.4325,0.561557 -1.0263,1.087604 -1.7815,1.578142 -0.6841,0.406645 -1.3651,0.81651 -2.0428,1.229595 -0.8004,0.497008 -1.2006,1.074691 -1.2006,1.733051 0,0.574461 0.1033,1.071462 0.3098,1.491005 0.2582,0.516368 0.639,0.816505 1.1425,0.900412 0.032,0.0065 0.3873,0.02259 1.065,0.04841 1.6072,0.06455 3.0078,0.377595 4.2019,0.93914 m -10.1465,-0.590593 c -0.2518,-0.703545 -0.3776,-1.25541 -0.3776,-1.655597 0,-0.277542 0.035,-0.513133 0.1065,-0.706775 l -0.2227,0.05809 c -0.078,0.296915 -0.1162,0.613188 -0.1162,0.948822 0,0.27755 0.1129,0.729369 0.3389,1.355459 l 0.2711,0 m -0.5326,-0.05809 c -0.2323,-0.55509 -0.3485,-0.952045 -0.3485,-1.190868 0,-0.238815 0.026,-0.535725 0.078,-0.89073 l -0.2711,0.183955 c -0.045,0.258187 -0.068,0.500233 -0.068,0.726139 0,0.296913 0.1226,0.658369 0.3679,1.084367 l 0.242,0.08714"
       id="text3825"
       inkscape:connector-curvature="0" />
    <path
       style="font-size:8.59301758px;font-style:normal;font-variant:normal;font-weight:normal;font-stretch:normal;text-align:start;line-height:100%;writing-mode:lr-tb;text-anchor:start;fill:#e4e4e4;fill-opacity:1;stroke:none;font-family:Sans;-inkscape-font-specification:Sans"
       d="m 1517.0958,55.177443 0.9328,0 0,-4.926069 -1.0147,0.311394 0,-0.795784 1.0091,-0.311392 0.571,0 0,5.721851 0.9329,0 0,0.735235 -2.4311,0 0,-0.735235 m 4.8791,-2.841464 c -0.2564,4e-6 -0.4599,0.134075 -0.6106,0.402216 -0.1489,0.268148 -0.2233,0.635765 -0.2233,1.102851 0,0.46421 0.074,0.831825 0.2233,1.102852 0.1507,0.268145 0.3542,0.402217 0.6106,0.402216 0.2563,10e-7 0.4589,-0.134071 0.6077,-0.402216 0.1508,-0.271027 0.2261,-0.638642 0.2261,-1.102852 0,-0.467086 -0.075,-0.834703 -0.2261,-1.102851 -0.1488,-0.268141 -0.3514,-0.402212 -0.6077,-0.402216 m 1.1335,-2.737666 0,0.795783 c -0.1432,-0.103792 -0.2883,-0.183082 -0.4353,-0.23787 -0.1451,-0.05478 -0.2893,-0.08217 -0.4325,-0.08217 -0.3769,7e-6 -0.6652,0.194628 -0.865,0.583863 -0.1979,0.389246 -0.3109,0.977433 -0.3392,1.764562 0.1111,-0.25084 0.2506,-0.442578 0.4183,-0.575213 0.1678,-0.135508 0.3524,-0.203266 0.5541,-0.203269 0.424,3e-6 0.7585,0.197508 1.0035,0.592511 0.2468,0.392128 0.3703,0.926975 0.3703,1.60454 0,0.663155 -0.1282,1.195118 -0.3844,1.595892 -0.2563,0.400775 -0.5974,0.601161 -1.0233,0.601161 -0.4882,0 -0.8613,-0.285443 -1.1195,-0.856331 -0.2581,-0.57377 -0.3872,-1.404151 -0.3872,-2.491147 0,-1.020673 0.1583,-1.833755 0.4749,-2.439247 0.3166,-0.608364 0.7416,-0.912549 1.2749,-0.912555 0.1432,6e-6 0.2873,0.02163 0.4324,0.06487 0.147,0.04326 0.2997,0.108129 0.458,0.19462 m 2.4819,0.43249 c -0.2939,7e-6 -0.5154,0.222018 -0.6643,0.666036 -0.147,0.441146 -0.2205,1.105739 -0.2205,1.993782 0,0.885167 0.074,1.54976 0.2205,1.993782 0.1489,0.441142 0.3704,0.661712 0.6643,0.661711 0.2959,10e-7 0.5173,-0.220569 0.6643,-0.661711 0.1489,-0.444022 0.2233,-1.108615 0.2233,-1.993782 0,-0.888043 -0.074,-1.552636 -0.2233,-1.993782 -0.147,-0.444018 -0.3684,-0.666029 -0.6643,-0.666036 m 0,-0.691984 c 0.473,6e-6 0.8339,0.286891 1.0827,0.860656 0.2506,0.570893 0.3759,1.401274 0.3759,2.491146 0,1.086996 -0.1253,1.917377 -0.3759,2.491147 -0.2488,0.570888 -0.6097,0.856331 -1.0827,0.856331 -0.473,0 -0.8348,-0.285443 -1.0855,-0.856331 -0.2488,-0.57377 -0.3731,-1.404151 -0.3731,-2.491147 0,-1.089872 0.1243,-1.920253 0.3731,-2.491146 0.2507,-0.573765 0.6125,-0.86065 1.0855,-0.860656 m 3.6861,0.691984 c -0.2939,7e-6 -0.5154,0.222018 -0.6642,0.666036 -0.1471,0.441146 -0.2206,1.105739 -0.2206,1.993782 0,0.885167 0.073,1.54976 0.2206,1.993782 0.1488,0.441142 0.3703,0.661712 0.6642,0.661711 0.2959,10e-7 0.5173,-0.220569 0.6643,-0.661711 0.1489,-0.444022 0.2233,-1.108615 0.2233,-1.993782 0,-0.888043 -0.074,-1.552636 -0.2233,-1.993782 -0.147,-0.444018 -0.3684,-0.666029 -0.6643,-0.666036 m 0,-0.691984 c 0.473,6e-6 0.8339,0.286891 1.0827,0.860656 0.2506,0.570893 0.3759,1.401274 0.3759,2.491146 0,1.086996 -0.1253,1.917377 -0.3759,2.491147 -0.2488,0.570888 -0.6097,0.856331 -1.0827,0.856331 -0.4729,0 -0.8348,-0.285443 -1.0854,-0.856331 -0.2488,-0.57377 -0.3732,-1.404151 -0.3732,-2.491147 0,-1.089872 0.1244,-1.920253 0.3732,-2.491146 0.2506,-0.573765 0.6125,-0.86065 1.0854,-0.860656 m 2.5243,5.475332 0.5965,0 0,1.098527 -0.5965,0 0,-1.098527 m 0,-3.48155 0.5965,0 0,1.098526 -0.5965,0 0,-1.098526 m 1.9958,3.844842 0.9328,0 0,-4.926069 -1.0148,0.311394 0,-0.795784 1.0091,-0.311392 0.5711,0 0,5.721851 0.9328,0 0,0.735235 -2.431,0 0,-0.735235 m -15.6124,4.419063 c 0.078,-0.214514 0.1713,-0.372805 0.2799,-0.474876 0.1086,-0.102064 0.2363,-0.153099 0.3833,-0.153101 0.1979,2e-6 0.3505,0.106395 0.458,0.319178 0.1073,0.211058 0.1611,0.512071 0.1611,0.903041 l 0,1.754181 -0.3138,0 0,-1.738612 c 0,-0.278522 -0.032,-0.485252 -0.097,-0.620192 -0.065,-0.134934 -0.1629,-0.202402 -0.2952,-0.202406 -0.1617,4e-6 -0.2894,0.08218 -0.3833,0.24652 -0.094,0.164349 -0.1408,0.388379 -0.1408,0.672091 l 0,1.642599 -0.3137,0 0,-1.738612 c 0,-0.280252 -0.032,-0.486983 -0.097,-0.620192 -0.064,-0.134934 -0.164,-0.202402 -0.2985,-0.202406 -0.1595,4e-6 -0.2861,0.08304 -0.38,0.249115 -0.094,0.164349 -0.1407,0.387514 -0.1407,0.669496 l 0,1.642599 -0.3138,0 0,-2.906337 0.3138,0 0,0.451521 c 0.071,-0.178184 0.1566,-0.309661 0.2561,-0.394432 0.1,-0.08477 0.2176,-0.12715 0.3544,-0.127152 0.138,2e-6 0.255,0.05363 0.3511,0.160886 0.097,0.10726 0.1691,0.262958 0.2154,0.467091 m 2.6425,-0.223166 c -0.1673,3e-6 -0.2997,0.10034 -0.3968,0.301014 -0.097,0.198948 -0.146,0.472281 -0.146,0.820002 0,0.347724 0.048,0.621922 0.1443,0.822597 0.097,0.198946 0.2301,0.298419 0.3985,0.298419 0.1663,0 0.298,-0.100337 0.3952,-0.301013 0.097,-0.200676 0.1459,-0.47401 0.1459,-0.820003 0,-0.344261 -0.049,-0.61673 -0.1459,-0.817407 -0.097,-0.202404 -0.2289,-0.303606 -0.3952,-0.303609 m 0,-0.404811 c 0.2714,2e-6 0.4845,0.13494 0.6395,0.404811 0.1549,0.269877 0.2323,0.643548 0.2323,1.121016 0,0.47574 -0.077,0.849412 -0.2323,1.121016 -0.155,0.269875 -0.3681,0.404812 -0.6395,0.404812 -0.2725,0 -0.4862,-0.134937 -0.6411,-0.404812 -0.1537,-0.271604 -0.2306,-0.645276 -0.2306,-1.121016 0,-0.477468 0.077,-0.851139 0.2306,-1.121016 0.1549,-0.269871 0.3686,-0.404809 0.6411,-0.404811 m 2.5984,0.155696 0,0.45152 c -0.088,-0.0692 -0.1798,-0.121095 -0.2748,-0.155696 -0.095,-0.0346 -0.1934,-0.0519 -0.2951,-0.0519 -0.1549,2e-6 -0.2714,0.03633 -0.3494,0.108988 -0.077,0.07266 -0.1153,0.181648 -0.1153,0.326963 0,0.110719 0.028,0.198083 0.083,0.262089 0.055,0.06228 0.1668,0.121964 0.3341,0.179051 l 0.1069,0.03633 c 0.2216,0.07266 0.3787,0.175592 0.4715,0.308798 0.094,0.131478 0.1407,0.315719 0.1407,0.552723 0,0.269874 -0.07,0.483525 -0.2103,0.640951 -0.139,0.157427 -0.3307,0.236141 -0.5749,0.236141 -0.1018,0 -0.208,-0.01557 -0.3189,-0.04671 -0.1097,-0.02941 -0.2255,-0.07439 -0.3477,-0.134937 l 0,-0.49304 c 0.1154,0.09169 0.229,0.160888 0.3409,0.207596 0.112,0.04498 0.2228,0.06747 0.3325,0.06747 0.1469,2e-6 0.26,-0.03806 0.3392,-0.114176 0.079,-0.07785 0.1187,-0.186836 0.1187,-0.326963 0,-0.129747 -0.029,-0.22922 -0.086,-0.29842 -0.057,-0.0692 -0.1814,-0.1358 -0.3748,-0.19981 l -0.1086,-0.03892 c -0.1933,-0.06228 -0.3329,-0.157424 -0.4189,-0.285443 -0.086,-0.129746 -0.1289,-0.307067 -0.1289,-0.531964 0,-0.273331 0.063,-0.484386 0.19,-0.633166 0.1266,-0.148774 0.3064,-0.223163 0.5393,-0.223165 0.1154,2e-6 0.2239,0.01298 0.3256,0.03892 0.1018,0.02595 0.1957,0.06488 0.2816,0.116773 m 0.9091,-0.910826 0,0.825193 0.6428,0 0,0.371078 -0.6428,0 0,1.577726 c 0,0.237005 0.021,0.389242 0.063,0.45671 0.043,0.06747 0.1294,0.101202 0.2594,0.101202 l 0.3206,0 0,0.399621 -0.3206,0 c -0.2408,0 -0.4071,-0.06833 -0.4986,-0.205 -0.092,-0.138397 -0.1374,-0.389241 -0.1374,-0.752533 l 0,-1.577726 -0.229,0 0,-0.371078 0.229,0 0,-0.825193 0.3138,0 m -6.7656,7.585023 c -0.2522,1e-6 -0.4269,0.04412 -0.5242,0.132342 -0.097,0.08823 -0.1458,0.238736 -0.1458,0.45152 0,0.169537 0.036,0.304474 0.1086,0.404812 0.074,0.09861 0.173,0.147911 0.2985,0.147911 0.173,0 0.3115,-0.09342 0.4155,-0.280254 0.1052,-0.188565 0.1577,-0.438544 0.1577,-0.749938 l 0,-0.106393 -0.3103,0 m 0.6224,-0.197216 0,1.658169 -0.3121,0 0,-0.44114 c -0.071,0.176456 -0.16,0.307069 -0.2663,0.391837 -0.1062,0.08304 -0.2363,0.124556 -0.39,0.124556 -0.1945,0 -0.3494,-0.08304 -0.4648,-0.249113 -0.1142,-0.167807 -0.1713,-0.391837 -0.1713,-0.672092 0,-0.326961 0.071,-0.573481 0.2138,-0.739559 0.1436,-0.166074 0.3573,-0.249112 0.6411,-0.249114 l 0.4375,0 0,-0.04671 c 0,-0.219704 -0.047,-0.38924 -0.1424,-0.508609 -0.094,-0.121095 -0.2261,-0.181643 -0.3969,-0.181646 -0.1086,3e-6 -0.2143,0.0199 -0.3171,0.05968 -0.103,0.03979 -0.2019,0.09948 -0.2969,0.179052 l 0,-0.441141 c 0.1142,-0.06746 0.2251,-0.117635 0.3324,-0.150506 0.1075,-0.0346 0.2121,-0.0519 0.3138,-0.0519 0.2748,3e-6 0.4801,0.10899 0.6157,0.326963 0.1357,0.217977 0.2035,0.548399 0.2035,0.991268 m 0.4631,-1.248168 0.3121,0 0.39,2.267982 0.3884,-2.267982 0.3681,0 0.3901,2.267982 0.3884,-2.267982 0.312,0 -0.4969,2.906337 -0.368,0 -0.4088,-2.382158 -0.4104,2.382158 -0.3681,0 -0.4969,-2.906337 m 4.6489,1.333801 0,0.233545 -1.4349,0 c 0.014,0.328695 0.078,0.579539 0.1934,0.752534 0.1164,0.171267 0.2781,0.2569 0.4851,0.256899 0.1198,10e-7 0.2357,-0.02249 0.3476,-0.06747 0.1131,-0.04498 0.225,-0.112447 0.3358,-0.202406 l 0,0.451521 c -0.1119,0.07266 -0.2266,0.128017 -0.3443,0.166077 -0.1175,0.03806 -0.2369,0.05709 -0.3578,0.05709 -0.3031,0 -0.5434,-0.134937 -0.7208,-0.404811 -0.1764,-0.269873 -0.2646,-0.634894 -0.2646,-1.095065 0,-0.475739 0.084,-0.85287 0.251,-1.131397 0.1685,-0.28025 0.3952,-0.420377 0.6801,-0.42038 0.2555,3e-6 0.4574,0.12629 0.6055,0.378862 0.1492,0.250846 0.2239,0.592514 0.2239,1.025002 m -0.3121,-0.140127 c 0,-0.261222 -0.05,-0.469683 -0.1441,-0.625381 -0.093,-0.155694 -0.2161,-0.233542 -0.3698,-0.233545 -0.1741,3e-6 -0.3138,0.07526 -0.4189,0.225759 -0.104,0.15051 -0.164,0.36243 -0.1798,0.635762 l 1.1126,-0.0026 m 2.0353,-1.108041 0,0.45152 c -0.088,-0.0692 -0.1798,-0.121094 -0.2748,-0.155696 -0.095,-0.0346 -0.1933,-0.0519 -0.2951,-0.0519 -0.1549,3e-6 -0.2714,0.03633 -0.3494,0.108988 -0.077,0.07266 -0.1153,0.181648 -0.1153,0.326963 0,0.110719 0.028,0.198082 0.083,0.262089 0.055,0.06228 0.1668,0.121964 0.3342,0.179052 l 0.1068,0.03633 c 0.2216,0.07266 0.3788,0.175593 0.4714,0.308799 0.094,0.131478 0.1409,0.315719 0.1409,0.552723 0,0.269874 -0.07,0.483524 -0.2104,0.640951 -0.139,0.157427 -0.3307,0.236139 -0.575,0.236139 -0.1017,0 -0.208,-0.01557 -0.3188,-0.04671 -0.1096,-0.02941 -0.2256,-0.07439 -0.3476,-0.134937 l 0,-0.49304 c 0.1152,0.09169 0.2289,0.160888 0.3408,0.207596 0.112,0.04498 0.2228,0.06747 0.3324,0.06747 0.147,0 0.2601,-0.03806 0.3393,-0.114177 0.079,-0.07785 0.1187,-0.186835 0.1187,-0.326963 0,-0.129746 -0.029,-0.229219 -0.087,-0.298419 -0.057,-0.0692 -0.1815,-0.1358 -0.3749,-0.19981 l -0.1085,-0.03892 c -0.1933,-0.06228 -0.333,-0.157425 -0.4189,-0.285443 -0.086,-0.129745 -0.1289,-0.307067 -0.1289,-0.531964 0,-0.273331 0.063,-0.484387 0.1899,-0.633167 0.1266,-0.148773 0.3064,-0.223161 0.5394,-0.223164 0.1153,3e-6 0.2239,0.01298 0.3256,0.03892 0.1018,0.02595 0.1957,0.06488 0.2816,0.116772 m 1.3365,0.249115 c -0.1674,3e-6 -0.2997,0.100341 -0.3969,0.301014 -0.097,0.198948 -0.1459,0.472281 -0.1459,0.820001 0,0.347725 0.048,0.621923 0.1442,0.822598 0.097,0.198946 0.2301,0.298419 0.3986,0.298418 0.1662,10e-7 0.298,-0.100336 0.3952,-0.301013 0.097,-0.200675 0.1459,-0.474009 0.1459,-0.820003 0,-0.34426 -0.049,-0.616729 -0.1459,-0.817406 -0.097,-0.202404 -0.229,-0.303606 -0.3952,-0.303609 m 0,-0.404811 c 0.2714,3e-6 0.4845,0.13494 0.6394,0.404811 0.155,0.269877 0.2324,0.643548 0.2324,1.121015 0,0.475741 -0.077,0.849413 -0.2324,1.121016 -0.1549,0.269874 -0.368,0.404811 -0.6394,0.404811 -0.2725,0 -0.4862,-0.134937 -0.6411,-0.404811 -0.1538,-0.271603 -0.2307,-0.645275 -0.2307,-1.121016 0,-0.477467 0.077,-0.851138 0.2307,-1.121015 0.1549,-0.269871 0.3686,-0.404808 0.6411,-0.404811 m 2.8663,0.627975 c 0.078,-0.214512 0.1714,-0.372803 0.2799,-0.474874 0.1085,-0.102064 0.2364,-0.153098 0.3833,-0.153101 0.1979,3e-6 0.3505,0.106395 0.4579,0.319178 0.1075,0.211057 0.1612,0.512071 0.1612,0.903041 l 0,1.754181 -0.3138,0 0,-1.738612 c 0,-0.278522 -0.032,-0.485252 -0.097,-0.620192 -0.064,-0.134934 -0.1628,-0.202403 -0.2951,-0.202406 -0.1617,3e-6 -0.2895,0.08218 -0.3833,0.24652 -0.094,0.164349 -0.1408,0.388379 -0.1408,0.672091 l 0,1.642599 -0.3138,0 0,-1.738612 c 0,-0.280252 -0.032,-0.486983 -0.097,-0.620192 -0.064,-0.134934 -0.1639,-0.202403 -0.2984,-0.202406 -0.1595,3e-6 -0.2861,0.08304 -0.3799,0.249115 -0.094,0.164349 -0.1408,0.387514 -0.1408,0.669496 l 0,1.642599 -0.3138,0 0,-2.906337 0.3138,0 0,0.45152 c 0.071,-0.178184 0.1566,-0.30966 0.2561,-0.394431 0.1,-0.08476 0.2177,-0.127149 0.3545,-0.127152 0.1379,3e-6 0.255,0.05363 0.3511,0.160887 0.097,0.107259 0.169,0.262956 0.2153,0.467088 m 3.5312,0.775889 0,0.233545 -1.4348,0 c 0.014,0.328695 0.078,0.579539 0.1934,0.752534 0.1164,0.171267 0.2781,0.2569 0.485,0.256899 0.1199,10e-7 0.2358,-0.02249 0.3477,-0.06747 0.1131,-0.04498 0.2251,-0.112447 0.3358,-0.202406 l 0,0.451521 c -0.1119,0.07266 -0.2267,0.128017 -0.3443,0.166077 -0.1176,0.03806 -0.2369,0.05709 -0.3578,0.05709 -0.303,0 -0.5433,-0.134937 -0.7209,-0.404811 -0.1764,-0.269873 -0.2646,-0.634894 -0.2646,-1.095065 0,-0.475739 0.084,-0.85287 0.2511,-1.131397 0.1684,-0.28025 0.3951,-0.420377 0.6801,-0.42038 0.2555,3e-6 0.4574,0.12629 0.6055,0.378862 0.1492,0.250846 0.2238,0.592514 0.2238,1.025002 m -0.312,-0.140127 c 0,-0.261222 -0.05,-0.469683 -0.1442,-0.625381 -0.093,-0.155694 -0.2159,-0.233542 -0.3697,-0.233545 -0.1741,3e-6 -0.3138,0.07526 -0.4189,0.225759 -0.1041,0.15051 -0.164,0.36243 -0.1798,0.635762 l 1.1126,-0.0026"
       id="text3829"
       inkscape:connector-curvature="0" />
    <text
       xml:space="preserve"
       style="font-size:37.06463242px;font-style:normal;font-variant:normal;font-weight:normal;font-stretch:normal;text-align:start;line-height:100%;writing-mode:lr-tb;text-anchor:start;fill:#464646;fill-opacity:1;stroke:none;font-family:Trebuchet MS;-inkscape-font-specification:Trebuchet MS"
       x="1846.9248"
       y="117.43245"
       id="text3640"
       sodipodi:linespacing="100%"
       transform="scale(0.81900163,1.2209988)"
       inkscape:transform-center-x="26.263966"
       inkscape:transform-center-y="97.984797"><tspan
         sodipodi:role="line"
         id="tspan3642"
         x="1846.9248"
         y="117.43245"
         style="font-style:italic;fill:#464646;fill-opacity:1;-inkscape-font-specification:Trebuchet MS Italic">FLAT</tspan></text>
    <g
       id="g3168"
       transform="matrix(1.6215257,0,0,1.300898,-98.202974,-325.23188)">
      <g
         transform="matrix(0.22213691,0,0,0.28745519,47.795561,824.33321)"
         id="g3780">
        <path
           inkscape:connector-curvature="0"
           style="fill:url(#linearGradient3241);fill-opacity:1;fill-rule:evenodd;stroke:none;display:inline"
           d="m 373.36324,1100.7299 c 0,25.71 139.51912,55.9741 311.4266,55.9741 171.90749,0 311.42656,-30.2641 311.42656,-55.9741 l 0,-28.3013 -599.07354,0 0.35714,0 -24.13676,-3.2143 0,31.5156 z"
           id="path3372"
           sodipodi:nodetypes="css" />
        <path
           inkscape:connector-curvature="0"
           sodipodi:nodetypes="csssc"
           id="path3370"
           d="m 1008.0021,1062.1195 c 0,42.6242 -144.79907,92.7986 -323.21227,92.7986 -178.41319,0 -323.21231,-50.1744 -323.21231,-92.7986 0,-42.6237 144.79912,-61.6359 323.21231,-61.6359 178.4132,0 323.21227,19.0122 323.21227,61.6359 z"
           style="fill:url(#linearGradient3243);fill-opacity:1;fill-rule:evenodd;stroke:none;display:inline" />
        <path
           inkscape:connector-curvature="0"
           style="fill:url(#linearGradient3245);fill-opacity:1;fill-rule:evenodd;stroke:url(#radialGradient3247);stroke-width:0.99999988;stroke-linecap:butt;stroke-linejoin:round;stroke-miterlimit:4;stroke-opacity:1;stroke-dashoffset:0;display:inline"
           d="m 1008.0021,1054.943 c 0,40.9992 -144.79907,89.2607 -323.21227,89.2607 -178.41319,0 -323.21231,-48.2615 -323.21231,-89.2607 0,-40.9988 144.79912,-59.28611 323.21231,-59.28611 178.4132,0 323.21227,18.28731 323.21227,59.28611 z"
           id="path3361"
           sodipodi:nodetypes="csssc" />
        <path
           inkscape:connector-curvature="0"
           sodipodi:nodetypes="csssc"
           id="path3359"
           d="m 980.14504,1047.1323 c 0,38.6813 -132.31912,84.2143 -295.35519,84.2143 -163.03605,0 -295.35517,-45.533 -295.35517,-84.2143 0,-38.6809 132.31912,-55.93443 295.35517,-55.93443 163.03607,0 295.35519,17.25353 295.35519,55.93443 z"
           style="fill:url(#linearGradient3249);fill-opacity:1;fill-rule:evenodd;stroke:#858588;stroke-width:0.99999988;stroke-linecap:butt;stroke-linejoin:round;stroke-miterlimit:4;stroke-opacity:1;stroke-dashoffset:0;display:inline" />
        <path
           sodipodi:type="arc"
           style="opacity:0.33636367;fill:#000000;fill-opacity:1;fill-rule:evenodd;stroke:none;display:inline;filter:url(#filter3474)"
           id="path3432"
           sodipodi:cx="633.36566"
           sodipodi:cy="1022.6586"
           sodipodi:rx="53.033009"
           sodipodi:ry="3.2829957"
           d="m 686.39867,1022.6586 c 0,1.8132 -23.74369,3.283 -53.03301,3.283 -29.28932,0 -53.03301,-1.4698 -53.03301,-3.283 0,-1.8131 23.74369,-3.283 53.03301,-3.283 29.28932,0 53.03301,1.4699 53.03301,3.283 z"
           transform="matrix(2.0047619,0,0,4.4615385,-583.09614,-3539.7197)" />
        <path
           inkscape:connector-curvature="0"
           transform="matrix(2.2842626,0,0,2.3691288,-844.85029,-1515.0412)"
           style="fill:url(#linearGradient3251);fill-opacity:1;fill-rule:evenodd;stroke:url(#linearGradient3253);stroke-width:0.42986557;stroke-linecap:butt;stroke-linejoin:round;stroke-miterlimit:4;stroke-opacity:1;stroke-dasharray:none;stroke-dashoffset:0;display:inline"
           d="m 776.4286,1080.5262 c 0,13.9972 -47.84,30.4738 -106.78572,30.4738 -58.94571,0 -106.78571,-16.4766 -106.78571,-30.4738 0,-13.9971 47.84,-20.2405 106.78571,-20.2405 58.94572,0 106.78572,6.2434 106.78572,20.2405 z"
           id="path3352"
           sodipodi:nodetypes="csssc" />
        <rect
           style="fill:url(#linearGradient3255);fill-opacity:1;fill-rule:evenodd;stroke:none;display:inline"
           id="rect3267"
           width="178.03938"
           height="160.10918"
           x="594.72736"
           y="868.86285"
           rx="0"
           ry="0" />
        <rect
           style="fill:#262626;fill-opacity:1;fill-rule:evenodd;stroke:none;display:inline;filter:url(#filter3538)"
           id="rect3424"
           width="182.07999"
           height="5.6821079"
           x="593.84338"
           y="1023.5425"
           ry="2.3991122"
           rx="3.0304575" />
        <rect
           style="fill:#8f8f8f;fill-opacity:0.13145537;fill-rule:evenodd;stroke:none;display:inline"
           id="rect3269"
           width="6.7857146"
           height="160"
           x="602.14288"
           y="868.85712" />
        <path
           inkscape:connector-curvature="0"
           style="fill:none;stroke:#0e0e0e;stroke-width:1;stroke-linecap:butt;stroke-linejoin:round;stroke-miterlimit:4;stroke-opacity:1;stroke-dasharray:none;stroke-dashoffset:0;display:inline"
           d="m 609.56845,868.86286 0,159.73034"
           id="path3271" />
        <rect
           y="868.85712"
           x="618.14288"
           height="160"
           width="6.7857146"
           id="rect3281"
           style="fill:#8f8f8f;fill-opacity:0.13145537;fill-rule:evenodd;stroke:none;display:inline" />
        <path
           inkscape:connector-curvature="0"
           id="path3283"
           d="m 625.56845,868.86286 0,159.73034"
           style="fill:none;stroke:#0e0e0e;stroke-width:1;stroke-linecap:butt;stroke-linejoin:round;stroke-miterlimit:4;stroke-opacity:1;stroke-dasharray:none;stroke-dashoffset:0;display:inline" />
        <rect
           style="fill:#8f8f8f;fill-opacity:0.13145537;fill-rule:evenodd;stroke:none;display:inline"
           id="rect3285"
           width="6.7857146"
           height="160"
           x="634.14288"
           y="868.85712" />
        <path
           inkscape:connector-curvature="0"
           style="fill:none;stroke:#0e0e0e;stroke-width:1;stroke-linecap:butt;stroke-linejoin:round;stroke-miterlimit:4;stroke-opacity:1;stroke-dasharray:none;stroke-dashoffset:0;display:inline"
           d="m 641.56845,868.86286 0,159.73034"
           id="path3287" />
        <rect
           y="868.85712"
           x="650.14288"
           height="160"
           width="6.7857146"
           id="rect3289"
           style="fill:#8f8f8f;fill-opacity:0.13145537;fill-rule:evenodd;stroke:none;display:inline" />
        <path
           inkscape:connector-curvature="0"
           id="path3291"
           d="m 657.56845,868.86286 0,159.73034"
           style="fill:none;stroke:#0e0e0e;stroke-width:1;stroke-linecap:butt;stroke-linejoin:round;stroke-miterlimit:4;stroke-opacity:1;stroke-dasharray:none;stroke-dashoffset:0;display:inline" />
        <rect
           style="fill:#8f8f8f;fill-opacity:0.13145537;fill-rule:evenodd;stroke:none;display:inline"
           id="rect3293"
           width="6.7857146"
           height="160"
           x="666.14288"
           y="868.85712" />
        <path
           inkscape:connector-curvature="0"
           style="fill:none;stroke:#0e0e0e;stroke-width:1;stroke-linecap:butt;stroke-linejoin:round;stroke-miterlimit:4;stroke-opacity:1;stroke-dasharray:none;stroke-dashoffset:0;display:inline"
           d="m 673.56845,868.86286 0,159.73034"
           id="path3295" />
        <rect
           y="868.85712"
           x="682.14288"
           height="160"
           width="6.7857146"
           id="rect3297"
           style="fill:#8f8f8f;fill-opacity:0.13145537;fill-rule:evenodd;stroke:none;display:inline" />
        <path
           inkscape:connector-curvature="0"
           id="path3299"
           d="m 689.56845,868.86286 0,159.73034"
           style="fill:none;stroke:#0e0e0e;stroke-width:1;stroke-linecap:butt;stroke-linejoin:round;stroke-miterlimit:4;stroke-opacity:1;stroke-dasharray:none;stroke-dashoffset:0;display:inline" />
        <rect
           style="fill:#8f8f8f;fill-opacity:0.13145537;fill-rule:evenodd;stroke:none;display:inline"
           id="rect3301"
           width="6.7857146"
           height="160"
           x="698.14288"
           y="868.85712" />
        <path
           inkscape:connector-curvature="0"
           style="fill:none;stroke:#0e0e0e;stroke-width:1;stroke-linecap:butt;stroke-linejoin:round;stroke-miterlimit:4;stroke-opacity:1;stroke-dasharray:none;stroke-dashoffset:0;display:inline"
           d="m 705.56845,868.86286 0,159.73034"
           id="path3303" />
        <rect
           y="868.85712"
           x="714.14288"
           height="160"
           width="6.7857146"
           id="rect3305"
           style="fill:#8f8f8f;fill-opacity:0.13145537;fill-rule:evenodd;stroke:none;display:inline" />
        <path
           inkscape:connector-curvature="0"
           id="path3307"
           d="m 721.56845,868.86286 0,159.73034"
           style="fill:none;stroke:#0e0e0e;stroke-width:1;stroke-linecap:butt;stroke-linejoin:round;stroke-miterlimit:4;stroke-opacity:1;stroke-dasharray:none;stroke-dashoffset:0;display:inline" />
        <rect
           style="fill:#8f8f8f;fill-opacity:0.13145537;fill-rule:evenodd;stroke:none;display:inline"
           id="rect3309"
           width="6.7857146"
           height="160"
           x="730.14288"
           y="868.85712" />
        <path
           inkscape:connector-curvature="0"
           style="fill:none;stroke:#0e0e0e;stroke-width:1;stroke-linecap:butt;stroke-linejoin:round;stroke-miterlimit:4;stroke-opacity:1;stroke-dasharray:none;stroke-dashoffset:0;display:inline"
           d="m 737.56845,868.86286 0,159.73034"
           id="path3311" />
        <rect
           y="868.85712"
           x="746.14288"
           height="160"
           width="6.7857146"
           id="rect3313"
           style="fill:#8f8f8f;fill-opacity:0.13145537;fill-rule:evenodd;stroke:none;display:inline" />
        <path
           inkscape:connector-curvature="0"
           id="path3315"
           d="m 753.56845,868.86286 0,159.73034"
           style="fill:none;stroke:#0e0e0e;stroke-width:1;stroke-linecap:butt;stroke-linejoin:round;stroke-miterlimit:4;stroke-opacity:1;stroke-dasharray:none;stroke-dashoffset:0;display:inline" />
        <rect
           style="fill:#8f8f8f;fill-opacity:0.13145537;fill-rule:evenodd;stroke:none;display:inline"
           id="rect3317"
           width="6.7857146"
           height="160"
           x="762.14288"
           y="868.85712" />
        <path
           inkscape:connector-curvature="0"
           style="fill:none;stroke:#0e0e0e;stroke-width:1;stroke-linecap:butt;stroke-linejoin:round;stroke-miterlimit:4;stroke-opacity:1;stroke-dasharray:none;stroke-dashoffset:0;display:inline"
           d="m 769.56845,868.86286 0,159.73034"
           id="path3319" />
        <rect
           style="opacity:0.65;fill:url(#linearGradient3257);fill-opacity:1;fill-rule:evenodd;stroke:none;filter:url(#filter3498)"
           id="rect3380"
           width="177.28177"
           height="90.913727"
           x="595.98999"
           y="1029.9822"
           transform="matrix(1,0,0,1.0463508,-1.0101525,-52.45951)" />
      </g>
      <rect
         style="fill:#ffffff;fill-opacity:1;fill-rule:evenodd;stroke:none"
         id="rect3748"
         width="275.56879"
         height="236.36557"
         x="61.590626"
         y="838.86566"
         rx="1.4280231"
         ry="1.8479261" />
      <path
         inkscape:connector-curvature="0"
         sodipodi:nodetypes="cccccc"
         id="path3746"
         d="m 61.55096,1073.3398 c 0.08866,0.6437 0.245614,2.0631 2.142035,1.8992 l 271.998725,0 c 1.50651,-0.1512 1.51513,-0.8847 1.46768,-2.2425 -0.23602,0.8015 -1.1464,1.4616 -1.92748,1.2219 l -273.68096,-0.8786 z"
         style="fill:#d3d3d3;fill-opacity:1;fill-rule:evenodd;stroke:none" />
      <path
         inkscape:connector-curvature="0"
         sodipodi:nodetypes="ccccc"
         id="path3744"
         d="m 63.814015,839.65596 c -1.332047,0.20722 -2.385497,-0.28804 -2.240519,1.55012 l -0.02254,232.33902 c 0.586861,0.7029 1.290805,1.0421 2.142035,0.9239 l 0.12102,-234.81304 z"
         style="fill:#f4f4f4;fill-opacity:1;fill-rule:evenodd;stroke:none" />
      <rect
         style="fill:url(#linearGradient3259);fill-opacity:1;fill-rule:evenodd;stroke:none"
         id="rect3248"
         width="273.90274"
         height="235.01335"
         x="62.463306"
         y="839.60187"
         rx="1.428023"
         ry="1.8479263" />
      <path
         inkscape:connector-curvature="0"
         sodipodi:nodetypes="ccccc"
         id="path3710"
         d="m 68.032693,849.37738 1.659221,2.24354 259.563016,-0.17966 1.44784,-1.95059 -262.670077,-0.11329 z"
         style="fill:#959595;fill-opacity:1;fill-rule:evenodd;stroke:none" />
      <path
         inkscape:connector-curvature="0"
         id="path3692"
         d="m 330.78461,1063.9696 -0.25246,0.036 -1.40244,-2.1053 0.1359,-210.36332 1.48752,-2.05325 0.0315,214.48557 z"
         style="fill:url(#linearGradient3261);fill-opacity:1;fill-rule:evenodd;stroke:none" />
      <path
         inkscape:connector-curvature="0"
         id="path3666"
         d="m 69.623257,1061.9699 -1.507357,2.0276 262.69674,0.051 -1.9437,-2.6692 -259.245683,0.5903 z"
         style="fill:url(#linearGradient3263);fill-opacity:1;fill-rule:evenodd;stroke:none" />
      <path
         inkscape:connector-curvature="0"
         id="path3644"
         d="m 68.021368,849.38347 1.739039,2.10521 -0.0561,210.37562 -1.626843,2.1053 -0.0561,-214.58613 z"
         style="fill:url(#linearGradient3265);fill-opacity:1;fill-rule:evenodd;stroke:none" />
      <rect
         ry="0"
         rx="0"
         y="851.22931"
         x="69.524078"
         height="210.86891"
         width="259.8605"
         id="rect2450"
         style="fill:url(#radialGradient3267);fill-opacity:1;fill-rule:evenodd;stroke:none" />
      <rect
         ry="1.8479261"
         rx="1.4280231"
         y="838.86566"
         x="61.590626"
         height="236.36557"
         width="275.56879"
         id="rect3321"
         style="fill:none;stroke:#ececec;stroke-width:0.25269431;stroke-linecap:butt;stroke-linejoin:round;stroke-miterlimit:4;stroke-opacity:1;stroke-dasharray:none;stroke-dashoffset:0" />
      <path
         inkscape:connector-curvature="0"
         sodipodi:nodetypes="cc"
         id="path3323"
         d="m 68.056399,849.4327 0,214.5904"
         style="fill:none;stroke:#b2b4b3;stroke-width:0.25269431;stroke-linecap:butt;stroke-linejoin:round;stroke-miterlimit:4;stroke-opacity:1;stroke-dasharray:none;stroke-dashoffset:0" />
      <path
         inkscape:connector-curvature="0"
         sodipodi:nodetypes="cc"
         id="path3325"
         d="m 67.977065,849.4327 262.835575,0"
         style="fill:none;stroke:#959595;stroke-width:0.25269431;stroke-linecap:butt;stroke-linejoin:round;stroke-miterlimit:4;stroke-opacity:1;stroke-dasharray:none;stroke-dashoffset:0;display:inline" />
      <path
         inkscape:connector-curvature="0"
         id="path3330"
         d="m 68.016731,1063.9975 262.875239,0"
         style="fill:none;stroke:#c0c0c0;stroke-width:0.25269431;stroke-linecap:butt;stroke-linejoin:round;stroke-miterlimit:4;stroke-opacity:1;stroke-dasharray:none;stroke-dashoffset:0" />
      <path
         inkscape:connector-curvature="0"
         sodipodi:nodetypes="cc"
         id="path3332"
         d="m 330.77297,1063.9461 0,-214.48774"
         style="fill:none;stroke:#bbbbbd;stroke-width:0.25269431;stroke-linecap:butt;stroke-linejoin:round;stroke-miterlimit:4;stroke-opacity:1;stroke-dasharray:none;stroke-dashoffset:0" />
      <path
         inkscape:connector-curvature="0"
         sodipodi:nodetypes="cc"
         id="path3374"
         d="m 69.524089,851.22929 -1.388356,-1.69393"
         style="fill:none;stroke:#8c8c8c;stroke-width:0.25269431;stroke-linecap:round;stroke-linejoin:round;stroke-miterlimit:4;stroke-opacity:1;stroke-dasharray:none;stroke-dashoffset:0" />
      <path
         inkscape:connector-curvature="0"
         sodipodi:nodetypes="cc"
         id="path3376"
         d="m 330.67378,849.56102 -1.22966,1.64261"
         style="fill:none;stroke:#878789;stroke-width:0.25269431;stroke-linecap:round;stroke-linejoin:round;stroke-miterlimit:4;stroke-opacity:1;stroke-dasharray:none;stroke-dashoffset:0" />
      <path
         inkscape:connector-curvature="0"
         id="path3378"
         d="m 69.507966,1062.1547 -1.374402,1.7786"
         style="fill:none;stroke:#d4d4d4;stroke-width:0.25269431;stroke-linecap:round;stroke-linejoin:round;stroke-miterlimit:4;stroke-opacity:1;stroke-dasharray:none;stroke-dashoffset:0" />
      <path
         transform="matrix(0.1597108,0,0,0.2061221,128.77651,878.99687)"
         d="m 1289.4644,684.56122 5.4214,9.39029 -10.8429,0 z"
         inkscape:randomized="0"
         inkscape:rounded="0"
         inkscape:flatsided="true"
         sodipodi:arg2="-0.52359878"
         sodipodi:arg1="-1.5707963"
         sodipodi:r2="3.1300979"
         sodipodi:r1="6.2601957"
         sodipodi:cy="690.82141"
         sodipodi:cx="1289.4644"
         sodipodi:sides="3"
         id="path3250"
         style="fill:#000000;fill-opacity:1;fill-rule:evenodd;stroke:none"
         sodipodi:type="star" />
      <path
         sodipodi:type="star"
         style="fill:#000000;fill-opacity:1;fill-rule:evenodd;stroke:none"
         id="path3252"
         sodipodi:sides="3"
         sodipodi:cx="1289.4644"
         sodipodi:cy="690.82141"
         sodipodi:r1="6.2601957"
         sodipodi:r2="3.1300979"
         sodipodi:arg1="-1.5707963"
         sodipodi:arg2="-0.52359878"
         inkscape:flatsided="true"
         inkscape:rounded="0"
         inkscape:randomized="0"
         d="m 1289.4644,684.56122 5.4214,9.39029 -10.8429,0 z"
         transform="matrix(0.1597108,0,0,-0.2061221,128.77651,1173.8463)" />
      <path
         inkscape:connector-curvature="0"
         sodipodi:nodetypes="ccc"
         id="path3254"
         d="m 335.39421,1041.6684 0,1.2319 -1.17019,0"
         style="fill:none;stroke:#000000;stroke-width:0.25269431;stroke-linecap:butt;stroke-linejoin:round;stroke-miterlimit:4;stroke-opacity:1;stroke-dasharray:none;stroke-dashoffset:0" />
      <path
         transform="matrix(0,0.1190155,0.09089201,0,271.28015,889.43066)"
         d="m 1289.4644,684.56122 5.4214,9.39029 -10.8429,0 z"
         inkscape:randomized="0"
         inkscape:rounded="0"
         inkscape:flatsided="true"
         sodipodi:arg2="-0.52359878"
         sodipodi:arg1="-1.5707963"
         sodipodi:r2="3.1300979"
         sodipodi:r1="6.2601957"
         sodipodi:cy="690.82141"
         sodipodi:cx="1289.4644"
         sodipodi:sides="3"
         id="path3256"
         style="fill:#000000;fill-opacity:1;fill-rule:evenodd;stroke:none"
         sodipodi:type="star" />
      <path
         inkscape:connector-curvature="0"
         sodipodi:nodetypes="ccsss"
         id="path3262"
         d="m 334.87037,1057.5734 c 0.31939,0.1835 0.54231,0.5976 0.54231,1.0787 0,0.6511 -0.4084,1.1796 -0.91161,1.1796 -0.5032,0 -0.91159,-0.5285 -0.91159,-1.1796 0,-0.4816 0.22339,-0.8961 0.54333,-1.0793"
         style="fill:none;stroke:#000000;stroke-width:0.25269431;stroke-linecap:round;stroke-linejoin:round;stroke-miterlimit:4;stroke-opacity:1;stroke-dashoffset:0" />
      <path
         inkscape:connector-curvature="0"
         sodipodi:nodetypes="cc"
         id="path3265"
         d="m 334.48707,1056.928 0,1.3067"
         style="fill:none;stroke:#000000;stroke-width:0.25269431;stroke-linecap:round;stroke-linejoin:round;stroke-miterlimit:4;stroke-opacity:1;stroke-dasharray:none;stroke-dashoffset:0" />
      <path
         inkscape:connector-curvature="0"
         sodipodi:nodetypes="ccccccc"
         id="path3355"
         d="m 334.70466,1011.5014 c -0.36062,-0.2402 -0.58296,-0.2272 -0.89077,-0.1258 l 0,-1.4518 c 0.23984,-0.2709 0.5523,-0.1659 0.89756,0.1089 0.33259,-0.2628 0.45134,-0.4861 0.93187,-0.1271 l 0,1.3443 c -0.41622,-0.1337 -0.6807,-0.2974 -0.93866,0.2515 z"
         style="fill:none;stroke:#000000;stroke-width:0.25269431;stroke-linecap:butt;stroke-linejoin:round;stroke-miterlimit:4;stroke-opacity:1;stroke-dasharray:none;stroke-dashoffset:0" />
      <path
         inkscape:connector-curvature="0"
         id="path3357"
         d="m 334.71987,1010.0483 0,1.5143"
         style="fill:none;stroke:#000000;stroke-width:0.25269431;stroke-linecap:butt;stroke-linejoin:round;stroke-miterlimit:4;stroke-opacity:1;stroke-dasharray:none;stroke-dashoffset:0" />
      <path
         inkscape:connector-curvature="0"
         sodipodi:nodetypes="cccccccc"
         d="m 327.17919,1070.3112 c -0.35249,0 -0.71401,0.2758 -0.71401,0.924 l 0,2.5665 c 0,0.8216 -0.5854,0.8213 -0.91236,0.8213 -0.32697,0 3.52409,0 3.19712,0 -0.32696,0 -0.91236,3e-4 -0.91236,-0.8213 l 0,-2.5665 c 0,-0.6482 -0.36153,-0.924 -0.71401,-0.924"
         style="fill:#e4e4e4;fill-opacity:1;fill-rule:evenodd;stroke:none"
         id="path3365" />
      <rect
         ry="1.2319509"
         rx="0.9520154"
         y="841.02167"
         x="319.50067"
         height="7.1863794"
         width="9.9168262"
         id="rect3813"
         style="fill:#1b1b1b;fill-opacity:1;fill-rule:evenodd;stroke:none;display:inline" />
      <path
         transform="matrix(0.22662477,0,0,0.29326267,49.56962,819.38587)"
         d="m 677.85712,851.89288 c 0,6.90356 -5.59644,12.5 -12.5,12.5 -6.90356,0 -12.5,-5.59644 -12.5,-12.5 0,-6.90356 5.59644,-12.5 12.5,-12.5 6.90356,0 12.5,5.59644 12.5,12.5 z"
         sodipodi:ry="12.5"
         sodipodi:rx="12.5"
         sodipodi:cy="851.89288"
         sodipodi:cx="665.35712"
         id="path3627"
         style="fill:#2e2f33;fill-opacity:1;fill-rule:evenodd;stroke:none"
         sodipodi:type="arc" />
      <path
         inkscape:connector-curvature="0"
         sodipodi:nodetypes="css"
         id="path3629"
         d="m 202.57738,1069.2142 c 0,1.5868 -0.99517,2.8746 -2.22136,2.8746 -1.2262,0 -2.22137,-1.2878 -2.22137,-2.8746"
         style="fill:none;stroke:#d6d6d7;stroke-width:0.25269431;stroke-linecap:round;stroke-linejoin:round;stroke-miterlimit:4;stroke-opacity:1;stroke-dashoffset:0" />
      <path
         transform="matrix(0.30147154,0,0,0.39011776,0.11687683,737.28818)"
         d="m 662.23212,847.875 c 0,0.69036 -0.55965,1.25 -1.25,1.25 -0.69036,0 -1.25,-0.55964 -1.25,-1.25 0,-0.69036 0.55964,-1.25 1.25,-1.25 0.69035,0 1.25,0.55964 1.25,1.25 z"
         sodipodi:ry="1.25"
         sodipodi:rx="1.25"
         sodipodi:cy="847.875"
         sodipodi:cx="660.98212"
         id="path3632"
         style="fill:#d6d6d7;fill-opacity:1;fill-rule:evenodd;stroke:none"
         sodipodi:type="arc" />
      <path
         sodipodi:type="arc"
         style="fill:#d6d6d7;fill-opacity:1;fill-rule:evenodd;stroke:none"
         id="path3636"
         sodipodi:cx="660.98212"
         sodipodi:cy="847.875"
         sodipodi:rx="1.25"
         sodipodi:ry="1.25"
         d="m 662.23212,847.875 c 0,0.69036 -0.55965,1.25 -1.25,1.25 -0.69036,0 -1.25,-0.55964 -1.25,-1.25 0,-0.69036 0.55964,-1.25 1.25,-1.25 0.69035,0 1.25,0.55964 1.25,1.25 z"
         transform="matrix(0.23800384,0,0,0.24265366,43.872749,862.40098)" />
      <path
         inkscape:connector-curvature="0"
         sodipodi:nodetypes="cccc"
         id="path3638"
         d="m 201.20887,1067.9823 c 0.30081,0.099 0.49253,-0.016 0.73384,-0.231 -0.0628,0.4779 -0.4843,0.7635 -0.7388,0.6866 l 0.005,-0.4556 z"
         style="fill:#d6d6d7;fill-opacity:1;fill-rule:evenodd;stroke:none" />
      <g
         id="g3161"
         style="overflow:visible"
         transform="matrix(0.08759863,0,0,0.11335658,197.02838,1065.1531)">
        <path
           id="path562"
           d="M 0.41385466,38.4 C 0.41385466,59.345664 17.45608,76.38789 38.4,76.38789 59.347408,76.38789 76.386146,59.345664 76.386146,38.4 76.386146,17.454336 59.347408,0.4121104 38.4,0.4121104 17.454336,0.4121104 0.41385466,17.452592 0.41385466,38.4 z"
           style="fill:url(#radialGradient3269)"
           inkscape:connector-curvature="0" />
        <path
           id="path572"
           d="m 4.5099472,38.399974 c 0,18.659223 15.1807488,33.839973 33.8383198,33.839973 18.659224,0 33.838322,-15.179097 33.838322,-33.839973 C 72.186589,19.74075 57.007491,4.5616528 38.348267,4.5616528 19.690696,4.5600528 4.5099472,19.74075 4.5099472,38.399974 z"
           style="fill:#6b8e23"
           inkscape:connector-curvature="0" />
        <path
           id="path585"
           d="m 5.1194234,38.399974 c 0,18.323928 14.9065666,33.228845 33.2288436,33.228845 18.32393,0 33.228845,-14.903264 33.228845,-33.228845 0,-18.322276 -14.904915,-33.2288444 -33.228845,-33.2288444 -18.322277,0 -33.2288436,14.9049154 -33.2288436,33.2288444 z"
           style="fill:url(#radialGradient3271)"
           inkscape:connector-curvature="0" />
        <path
           id="path599"
           d="M 63.873597,17.192182 C 58.180197,9.7347696 48.859669,4.8655664 38.348267,4.8655664 c -10.509749,0 -19.830277,4.8692032 -25.525328,12.3266156 -0.06607,0.526892 -0.100753,1.063693 -0.100753,1.603799 0,10.043969 11.472689,18.186837 25.626081,18.186837 14.151743,0 25.624431,-8.142868 25.624431,-18.186837 0.0016,-0.540106 -0.03469,-1.076907 -0.0991,-1.603799 z"
           style="fill:url(#linearGradient3273);fill-opacity:1"
           inkscape:connector-curvature="0" />
        <polyline
           points="0,48 0,0 48,0 48,48 "
           style="fill:none"
           id="_x3C_Slice_x3E_"
           transform="scale(1.6,1.6)" />
        <path
           style="fill:#556b2f;fill-opacity:1"
           d="m 34.149893,6.4513648 c -4.844245,0.158512 -6.322658,5.7748322 -7.301749,9.6268852 -0.819904,1.820276 0.908614,3.081214 1.966467,2.705494 -1.951401,2.917053 -6.058187,4.040642 -7.574749,7.692798 -2.992558,3.507381 -5.560754,7.55301 -6.282196,12.190068 -0.959566,2.521772 -1.204406,7.889456 -0.973721,9.027838 0.635517,5.0534 0.998341,10.807467 5.186122,14.309803 3.838381,2.942714 6.120456,-2.996323 7.667727,-5.556158 1.696942,-3.656563 1.331896,-8.249607 4.520875,-11.155707 1.366979,-1.364306 4.506552,-3.604695 1.963797,-0.526184 -2.462416,5.360072 -1.811632,12.04095 -5.860109,16.645846 -1.370571,1.314512 -3.796379,4.150558 -0.617848,5.06755 3.013291,1.207786 6.351136,1.798498 9.389118,2.718188 2.000882,0.455534 8.384095,0.165998 4.124893,-2.749408 -1.323787,-0.753698 -6.690094,-2.756967 -2.710811,-2.344898 2.266315,-0.03358 4.544952,0.05112 6.798757,0.02024 0.551964,-2.426029 -4.56248,-1.578445 -6.254402,-2.661083 -4.040082,-0.0701 -4.056309,-3.922576 -1.775749,-6.251579 1.792059,-3.0664 3.856677,-5.984165 4.989487,-9.386461 1.691006,-2.817767 2.434286,-8.339058 -1.738391,-9.296447 -3.970958,-0.576104 -7.733523,1.781812 -10.875304,3.967285 -1.463177,0.901005 -5.145725,4.995971 -2.464896,1.420099 2.6516,-3.405955 5.705947,-7.61128 10.36705,-7.96235 3.628797,0.0067 6.970211,1.681464 10.344741,2.758557 3.918508,0.687315 7.060131,-2.224743 10.390592,-3.66329 3.529006,-0.956704 7.282401,0.277967 10.754684,-0.616249 -0.794672,-3.25096 -5.216622,-4.167653 -8.252073,-4.10926 -3.404287,1.123138 -6.739843,2.082341 -10.426159,1.660708 -2.788673,0.739129 -5.305184,-0.286714 -7.736625,-1.540576 -1.879205,-1.421048 -4.009168,-2.461396 -5.906267,-3.839314 0.874307,-1.877491 3.829174,-0.508352 3.75022,-3.459285 0.640968,-1.695237 2.800941,-1.510557 1.397728,-3.927633 C 40.35011,14.517754 43.71477,12.064786 41.453923,9.364504 40.139979,6.7000032 36.72029,6.5997072 34.149893,6.4513648 z"
           id="path2454"
           inkscape:connector-curvature="0" />
      </g>
    </g>
  </g>
</svg>
